<svg xmlns="http://www.w3.org/2000/svg" viewBox="0 0 180 88" role="img" aria-labelledby="title">
  <title id="title">Unioncamere + Google</title>
  <rect width="180" height="88" rx="10" fill="#fff"/>
  <g transform="translate(15 15)" fill="none" stroke="#1d70b8" stroke-width="4.5" stroke-linecap="round">
    <path d="M20 0c7 4 8 12 3 18"/>
    <path d="M20 42c7-4 8-12 3-18"/>
    <path d="M0 21c4-7 12-8 18-3"/>
    <path d="M42 21c-4-7-12-8-18-3"/>
    <path d="M5 6c8-2 14 3 15 11"/>
    <path d="M37 36c-8 2-14-3-15-11"/>
    <path d="M6 37c-2-8 3-14 11-15"/>
    <path d="M36 5c2 8-3 14-11 15"/>
  </g>
  <text x="66" y="33" fill="#233876" font-family="Arial, Helvetica, sans-serif" font-size="17" font-weight="800" letter-spacing=".2">UNION</text>
  <text x="66" y="50" fill="#233876" font-family="Arial, Helvetica, sans-serif" font-size="17" font-weight="800" letter-spacing=".2">CAMERE</text>
  <text x="66" y="73" font-family="Arial, Helvetica, sans-serif" font-size="22" font-weight="700">
    <tspan fill="#4285f4">G</tspan><tspan fill="#ea4335">o</tspan><tspan fill="#fbbc05">o</tspan><tspan fill="#4285f4">g</tspan><tspan fill="#34a853">l</tspan><tspan fill="#ea4335">e</tspan>
  </text>
</svg>
